<svg version="1.2" xmlns="http://www.w3.org/2000/svg" viewBox="0 0 600 600" width="600" height="600">
	<title>Logo JUG Pisa</title>
	<style>
		.s0 { fill: #6eb9ea } 
		.s1 { fill: #cc2139 } 
	</style>
	<g id="track">
		<path id="Path 0" class="s0" d="m434 296.5c-4.7 0.6-9.5 1.5-10.8 1.9-1.2 0.3-2.2 1.3-2.2 2.1 0 0.8 1 1.7 2.3 2 1.2 0.3 6 1.5 10.7 2.6 4.7 1.1 11.2 3.5 14.5 5.4 3.3 1.8 7.6 4.7 9.5 6.3 3.2 2.7 3.5 3.4 3.3 7.8-0.1 2.7-1.4 8.5-2.8 12.9-1.5 4.4-4.6 10.9-7 14.5-2.3 3.6-6.2 8.5-8.6 10.9-2.4 2.4-7.1 6.2-10.4 8.4-3.3 2.3-10 7.3-14.9 11.2-4.9 3.8-11.2 8.8-14 11.1-2.9 2.3-5.2 4.9-5.3 6.2-0.2 1.4 0.2 2.2 1.2 2.2 0.8 0 5.7-1.4 10.8-3.1 5-1.7 15.1-5.9 22.2-9.3 8-3.9 16.1-8.7 21-12.6 4.4-3.5 12.3-10.6 17.5-15.9 7.1-7.1 10.5-11.4 13-16.6 3.3-6.6 3.5-7.5 3.5-17-0.1-8.2-0.5-11.1-2.5-16-1.3-3.3-3.3-7-4.5-8.3-1.4-1.6-5.3-3.1-14-5.2-7.4-1.9-14.3-3-18-2.9-3.3 0.1-9.8 0.7-14.5 1.4zm-230.5 4c-2.7 0.7-8.6 2.7-13 4.4-4.4 1.7-10.4 4.5-13.4 6.3-3.8 2.3-6.1 4.5-7.4 7.3-1.5 2.9-1.8 5.1-1.4 8 0.4 2.2 1.7 5.6 2.9 7.5 1.9 2.8 3.6 3.8 9.8 5.8 4.1 1.3 10.4 3 14 3.7 3.6 0.8 17.3 3 30.5 5 13.2 2 28.1 4 33 4.6 5.8 0.7 22.3 0.9 46 0.6 20.4-0.3 40.4-1.1 44.5-1.6 4.1-0.6 14.5-2.5 23-4.2 8.5-1.7 17.8-3.9 20.5-4.9 2.8-1.1 8.3-4.4 12.3-7.4 3.9-3.1 7.6-6.5 8.2-7.6q1-2 0-2.5c-0.6-0.3-9.7-0.1-20.2 0.5-10.6 0.5-32.4 1.4-48.3 2-15.9 0.6-34.4 1.7-41 2.5-6.6 0.8-16.6 1.5-22.3 1.5-5.6 0-18.4-0.7-28.4-1.5-10.1-0.9-22.4-2.2-27.3-3.1-4.9-0.8-10.3-1.9-12-2.4-1.7-0.5-3.7-1.6-4.5-2.5-1.3-1.4-1.3-1.8 0.5-3.6 1.2-1.2 5.5-2.7 11-3.9 4.9-1.1 11.9-3.5 15.5-5.2 4.3-2.2 6.6-4 6.8-5.3 0.3-1.5-0.4-2.2-3-2.8-1.8-0.4-7.8-1.1-13.3-1.7-5.5-0.5-11.8-0.9-14-0.9-2.2 0-6.3 0.6-9 1.4zm17 66.5c-3.8 1-9 2.6-11.5 3.6-2.5 0.9-5.8 2.6-7.5 3.7-1.7 1.1-3.6 2.7-4.3 3.6-0.7 0.9-1.2 3-1.2 4.6 0 1.6 1.3 4.7 2.8 6.8 1.5 2.1 4.5 4.7 6.7 5.7 2.2 1.1 8.3 3.1 13.5 4.4 5.2 1.4 19.2 4.3 31 6.6l21.5 4c39.5 0 56.2-0.4 62.5-0.9 6.3-0.5 16.2-2.1 22-3.6 5.8-1.5 12.3-3.6 14.5-4.7 2.2-1.2 6.4-3.9 9.3-6.2 2.9-2.3 5.3-4.4 5.2-4.8 0-0.5-0.4-1-1-1.3-0.6-0.3-13.5 0-28.8 0.5-15.2 0.6-37.1 1.5-48.7 2.1-17.9 0.9-23.2 0.8-36-0.6-8.2-0.9-18.6-2.3-23-3-4.4-0.8-9.8-2-12-2.7-2.9-0.9-4-1.9-4-3.3 0-1.7 1.4-2.3 10.5-4.1 5.8-1.1 11.8-2.7 13.5-3.6 1.6-0.9 3.7-2.3 4.5-3.2 0.8-0.9 1.1-2 0.7-2.4-0.5-0.4-4.8-1.2-9.5-1.9-4.8-0.6-12.1-1.2-16.2-1.2-4.1 0-10.6 0.8-14.5 1.9zm17 58.6c-3.8 0.8-8.5 1.8-10.2 2.4-3 0.9-3.3 1.3-3.3 5.3-0.1 2.6 0.6 5.1 1.8 6.7 1 1.4 3.7 3.3 6 4.3 2.3 0.9 10.4 3.2 17.9 5.1 7.6 1.9 17.6 4.2 22.3 5 5.8 1.1 14.3 1.6 26.5 1.6 9.9 0 22.7-0.4 28.5-1 5.8-0.6 13.9-1.7 18-2.6 4.1-0.9 9.1-2.4 11-3.4 1.9-1 4.7-3.1 6.1-4.7 1.5-1.5 3.5-4.1 4.5-5.6 1.7-2.5 1.7-3 0.4-3.8-0.8-0.5-2.2-0.9-3-0.9-0.8 0-13.6 0.9-28.5 2-14.9 1.1-33.5 2-41.5 2-8 0-19.2-0.7-25-1.5-5.8-0.9-11.3-1.7-12.2-2-1-0.3-1.8-0.9-1.8-1.5 0-0.6 3.7-1.5 8.3-2.1 4.5-0.6 9.2-1.3 10.5-1.7 1.6-0.5 2.2-1.3 2-2.7-0.3-1.9-1.1-2-15.8-2.2-10-0.1-18 0.4-22.5 1.3zm-73 6.8c-7.2 1.9-15.3 4.3-18 5.4-2.7 1.1-7.9 3.4-11.5 5.2-3.6 1.8-9.2 5.1-12.5 7.4-3.3 2.4-7 5.8-8.1 7.7-1.2 1.9-2.5 4.8-2.9 6.4-0.3 1.6-0.2 4.9 0.4 7.3 0.8 2.9 2.6 5.7 5.8 8.9 3.2 3 7.9 6.1 13.8 8.9 4.9 2.3 12.4 5.4 16.5 6.8 4.1 1.5 13.6 3.8 21 5.2 7.4 1.3 21.4 3.6 31 5 13.2 1.9 24.9 2.8 47.5 3.5 16.5 0.5 37.4 0.7 46.5 0.4 9.1-0.3 23-1 31-1.6 8-0.6 21.5-1.9 30-3 8.5-1.1 23.6-3.8 33.5-6 9.9-2.2 21.6-5.1 26-6.6 4.4-1.4 12.3-4.6 17.5-7.1 7.3-3.5 11-6 16.2-11.1 4.7-4.7 6.9-7.8 7.7-10.6 0.6-2.2 1.1-6.3 1.1-9 0-2.8-0.5-5.8-1.2-6.8-1.2-1.7-1.8-1.5-7.8 4-3.6 3.2-8.5 7.1-11 8.5-2.5 1.4-9.7 4.6-16 7.1-6.3 2.5-16.7 5.7-23 7.1-6.3 1.4-17.6 3.6-25 5-7.4 1.3-20.9 3-30 3.7-10.4 0.7-25.3 1-40 0.6-12.9-0.3-28.4-1.3-34.5-2.1-6.1-0.9-20.9-2-33-2.6-12.1-0.5-24.7-1.2-28-1.5-3.3-0.3-11.6-2-18.5-3.7-6.9-1.7-16.1-4.6-20.5-6.5-4.4-1.8-9-4-10.3-4.8-1.2-0.8-2.2-2.5-2.2-3.8 0-1.2 1-3.8 2.2-5.7 1.2-1.9 3.5-5 5.2-6.8 1.7-1.9 6.3-5 10.1-6.9 3.8-2 8.2-4.4 9.8-5.4 1.5-1.1 2.7-2.8 2.7-3.9 0-1.7-0.7-2-4.3-2-2.3 0.1-10 1.6-17.2 3.4zm298.5 53.4c-3.6 2.6-12.4 7.7-19.5 11.4-7.2 3.7-17.1 8-22 9.6-4.9 1.7-16 4.2-24.5 5.7-8.5 1.5-20.4 3.7-26.5 5-6.1 1.3-16.6 3.1-23.5 4.1-9.8 1.2-24.7 1.7-68.5 2.1-40.7 0.4-59.4 0.2-68.5-0.7-6.9-0.7-17.7-2.3-24-3.6-6.3-1.3-12.3-2.4-13.3-2.4-0.9 0-1.7 0.8-1.7 1.8 0 0.9 1 2.2 2.2 2.9 1.3 0.7 4.1 1.9 6.3 2.8 2.2 0.9 8.9 2.9 15 4.5 6.1 1.6 15.7 3.7 21.5 4.6 8.6 1.4 19.9 1.8 62 2.1 29.1 0.3 62.2 0 76-0.6 20.8-0.9 26.5-1.5 37.5-4 7.1-1.6 15.9-3.9 19.5-5.1 3.6-1.3 11-4.3 16.5-6.7 5.5-2.4 14.1-6.9 19-9.8 4.9-3 11.3-7.1 14-9.2 2.7-2.1 6.5-6.3 8.3-9.3 1.8-3 3.2-6.5 3.2-7.7 0-1.3-0.6-2.3-1.3-2.2-0.6 0-4.1 2.1-7.7 4.7z"/>
		<path id="Path 0" class="s1" d="m381.5 79c-3.3 0.5-12.5 1.6-20.5 2.5-8 0.9-21.7 2.7-30.5 3.8-15.8 2.2-16 2.2-16 4.7 0 2 0.6 2.6 3 3 2.3 0.4 2.9 1 2.7 2.5-0.2 1.1-3.5 9.9-7.3 19.5-3.8 9.6-8.2 20-9.7 23-2.3 4.7-3.3 5.6-7.2 7-2.5 0.8-5.1 1.8-5.8 2.3-0.6 0.4-1.2 1.1-1.2 1.7 0 0.6 1.6 1.8 3.5 2.8 2 0.9 3.5 1.9 3.6 2.2 0 0.3-1.2 2.5-2.5 5-1.4 2.5-5.4 11.3-8.9 19.5-3.5 8.3-6.7 16-7.1 17.3-0.3 1.2 0 2.9 0.6 3.7 0.9 1.1 3 1.6 6.8 1.6 3-0.1 6.4-0.7 7.5-1.4 1.1-0.8 2.9-4.4 4.2-8.3 1.2-3.8 4.1-13.2 6.5-20.8 2.6-8.4 4.9-14.1 5.8-14.4 0.8-0.3 9.1 0.3 18.5 1.3 11.4 1.3 22.4 1.9 33.3 1.7l16.2-0.2c-2.4 7.4-5.3 18.5-8 29.5-2.7 11-5.2 21.3-5.5 23-0.6 2.9-0.8 3-4.3 2.2-2-0.4-4.1-1.2-4.7-1.7q-1-1 1.3-8.2c1.2-4 2.2-8 2.2-8.8 0.1-0.8-0.8-2.7-2-4.2-1.4-2-2.9-2.8-5.2-2.8-1.9-0.1-4 0.7-5 1.7-1 1-3 5.4-4.7 9.8l-2.9 8c-14.8 0-19.3-0.3-19.6-0.8-0.3-0.4 0.8-4.6 2.5-9.4 3.1-8.4 3.1-8.9 1.5-11.5-0.9-1.6-2.6-3.3-3.8-3.9-1.6-0.7-3.1-0.7-5 0-1.6 0.6-3.4 2.3-4.2 3.9-0.8 1.5-2.8 6.6-4.5 11.5l-3.1 8.7q-11 1.1-18.4 1.7c-5.1 0.5-9.2 1.3-9.7 2.1-0.5 0.6-0.7 1.6-0.4 2.2 0.3 0.6 2.9 1.6 5.8 2.4 2.8 0.8 12.4 3 21.2 5 8.8 1.9 20.7 4.2 26.5 5.2 6.5 1 19.4 1.8 34 2.1 12.9 0.3 25.1 0.1 27-0.4 1.9-0.5 3.5-1.5 3.5-2.3 0-0.8-2.2-2.1-5-3.1-3.2-1.1-5.1-2.4-5.3-3.6-0.2-1 0.4-7.6 1.3-14.8 1-7.2 3.2-20 4.9-28.5 3-14.3 3.5-15.6 5.7-16.2 1.3-0.4 5.1-1.3 8.4-2 4.7-1 6.1-1.7 6.3-3.3q0.3-2-2.2-3.2c-1.4-0.7-4.5-1.6-6.7-2-2.3-0.5-4.3-1.1-4.5-1.5-0.2-0.5 0.7-5 2.1-10 1.3-5.1 4.9-17 8-26.3 4.1-12.7 5.2-17.2 4.2-17.7-0.6-0.4-1.5-0.8-1.9-0.8-0.5 0-2.5 2.6-4.5 5.8-2 3.1-6.3 11.5-9.4 18.7-3.1 7.2-6.7 15.9-7.9 19.5-1.3 3.6-2.8 7.1-3.4 7.8-0.8 1-2.3 1.1-5.6 0.5l-4.5-0.9c0.7-7.7 0.9-12.1 0.9-14.8 0.1-4-0.3-5.2-2.4-6.8-1.7-1.4-3.3-1.8-5.2-1.4-1.7 0.4-3.6 1.9-4.8 3.9-1.1 1.7-2.5 6.2-3.2 10l-1.3 6.7c-16.6 0-17.5-0.2-17-1.7 0.2-1 0.9-3.8 1.4-6.3 0.6-2.5 1.1-5.5 1.1-6.7 0-1.3-1.1-3.4-2.5-4.8-1.4-1.4-3.6-2.5-5-2.5-1.6 0-3.3 1-4.6 2.8-1.1 1.5-3.2 6.5-4.6 11.2-1.3 4.7-3.2 9.1-4.1 9.8-1 0.7-2.7 1.2-3.9 1.2-1.3 0-2.3-0.6-2.3-1.2 0-0.7 1.9-7.1 4.3-14.3 2.4-7.2 5.4-17.3 6.6-22.5 1.3-5.2 2.5-10.1 2.7-10.7 0.3-1 5.6-1.3 22.2-1.3 15.8 0 25.6-0.5 36.2-1.9 8-1.1 19.2-2.3 25-2.6 5.8-0.4 11.1-1.3 11.8-1.9 0.7-0.6 1.3-1.3 1.3-1.6 0-0.3-1.7-1.3-3.8-2.2-2.1-1-5.9-2.2-8.6-2.8-2.6-0.5-9.1-1.2-14.5-1.4-5.3-0.3-12.4-0.1-15.7 0.4zm-111.3 142.3c-0.5 0.6-1.4 2.8-2 4.7-0.6 1.9-2.7 10.5-4.7 19-1.9 8.5-4.3 17.2-5.3 19.3-1.4 3.1-1.5 3.9-0.4 5 0.8 0.6 11.8 2.8 24.5 4.8 12.8 2 28.8 4.4 35.7 5.3 6.9 0.9 16.7 1.6 21.7 1.6 5.1 0 15-0.5 22-1 7.1-0.6 15.5-1.5 18.8-2.1 3.3-0.5 8.1-1.6 10.7-2.4 2.7-0.8 4.8-1.9 4.8-2.5 0-0.6-2.4-1.6-5.3-2.4-2.8-0.8-7.8-2-11-2.5-3.3-0.7-5.7-1.6-5.7-2.4 0-0.6 0.9-6.6 2-13.2 1.1-6.6 2-13.2 2-14.8 0-1.7-0.7-3.1-2-3.7-1.1-0.6-4.1-1-6.8-1-3.1-0.1-5.5 0.5-6.9 1.7-1.9 1.5-2.4 3.1-2.8 10.3-0.3 4.7-0.8 10.9-1 13.7-0.5 5.1-0.6 5.3-3.5 5.3-2.2 0-3-0.5-3-1.8 0-0.9 0.6-5.4 1.2-9.9 1.3-8.2 1.3-8.2-1.2-10.8-1.4-1.4-3.6-2.6-5-2.6-1.4 0-3.5 1.1-4.7 2.3-1.3 1.4-2.9 5.1-3.8 9.3-0.9 3.8-1.8 7.8-2 8.7-0.3 1-1.6 2-3 2.3-1.4 0.3-3.2 0.3-4 0-1.3-0.4-1.3-1.2 0-6.3 0.8-3.1 1.4-7.4 1.5-9.5 0-2.2-0.7-4.3-1.6-5.2-0.9-0.8-2.7-1.5-4-1.5-1.3 0-3.3 0.4-4.4 1-1.1 0.6-2.7 2.7-3.6 4.7-1 2.1-2.4 6.7-3.4 10.3l-1.6 6.5c-7.7 0.4-10.4 0.2-11.1-0.2-0.9-0.6-0.6-2.8 1.5-9.1l2.7-8.4c-4.6-4-6.5-4.7-8.7-4.6-1.9 0.2-3.8 1.2-5 2.8-1 1.4-3.4 6.6-5.3 11.5-3.2 8.7-3.5 9-6.7 9.3-1.8 0.1-4-0.2-4.8-0.7-1.3-0.8-1-2.2 1.9-9.8 1.9-4.8 4.7-12.6 6.3-17.3 1.5-4.7 2.8-9.3 2.8-10.3 0-1.2-1.5-2.1-5.3-3.2-2.8-0.8-6.2-1.5-7.3-1.5-1.2 0-2.6 0.6-3.2 1.2zm-13.7 60.3c-0.8 1.9-2.2 6.8-3 10.7-0.9 4-2.5 12.9-3.6 19.8-1.5 10.1-1.7 12.7-0.7 13.8 0.7 0.7 1.9 1.3 2.5 1.2 0.7 0 1.8-1.2 2.4-2.8 0.5-1.5 1.7-5.6 2.5-9.2 0.8-3.6 3.3-12.1 5.4-19 2.2-6.9 4-13.1 4-13.8 0-0.6-1.4-1.9-3-2.7-1.6-0.8-3.5-1.5-4-1.5-0.6 0-1.7 1.6-2.5 3.5zm102.2 7.7c-1.2 0.9-2 3.6-2.7 9.8-0.5 4.7-1 11.4-1 15 0 3.9 0.5 7 1.2 7.8 0.7 0.7 2.3 1.2 3.5 1.2 1.3 0 2.9-1 3.7-2.3 0.7-1.2 2.3-7.6 3.5-14.2 1.3-6.6 2.1-13.4 1.9-15-0.3-2.7-0.7-3-4.3-3.3-2.2-0.2-4.8 0.3-5.8 1zm-83.2 6c-0.9 1.3-2.5 5.4-3.7 9.3-1.2 3.9-2.2 9.7-2.2 13l-0.1 6h13c4.2-16.3 5.4-22.2 5.4-23.8 0.1-1.5-0.8-3.6-1.9-4.7-1.2-1.2-3.3-2-5.5-2-2.4 0-3.9 0.7-5 2.2zm29.3 0.5c-0.9 1-2.2 3.2-3.1 4.8-0.8 1.6-2.2 6.8-3.1 11.5-0.9 4.7-1.6 9.5-1.6 10.7 0 2.2 0.4 2.3 7 2.3h7c3.9-17.1 5-22.9 5-24 0-1.1-1.2-3.1-2.8-4.5-1.5-1.4-3.6-2.6-4.8-2.5-1.2 0-2.8 0.8-3.6 1.7zm26.6 1.4c-1 1.2-3.4 7.2-5.1 13.3-1.8 6.1-3.3 11.4-3.3 11.8 0 0.5 0.7 1.5 1.5 2.3 0.9 0.9 3.4 1.5 6.5 1.5 4.1 0 5.3-0.4 6.5-2.3 0.8-1.2 2.4-5.8 3.5-10.2 1.1-4.4 2-9.2 2-10.8 0-1.5-1.1-3.8-2.5-5.2-1.4-1.4-3.6-2.5-4.9-2.5-1.2 0-3.2 1-4.2 2.1z"/>
	</g>
</svg>